<svg width="958" height="180" viewBox="0 0 958 180" fill="none" xmlns="http://www.w3.org/2000/svg">
<rect width="958" height="180" rx="14" fill="#F6F6F9"/>
<path d="M57.488 58.908C57.488 56.004 60.032 54.444 62.648 54.444C64.976 54.444 67.616 55.836 68.144 59.052L66.08 59.556C65.768 57.06 64.088 56.412 62.48 56.412C60.752 56.412 59.648 57.324 59.648 58.74C59.648 60.156 60.464 60.852 61.784 61.26L64.928 62.172C66.848 62.724 68.408 63.756 68.408 66.276C68.408 69.18 65.816 70.812 62.984 70.812C60.056 70.812 57.152 69.012 56.696 65.676L58.808 65.148C59.096 68.172 61.304 68.844 63.008 68.844C65.264 68.844 66.272 67.86 66.272 66.444C66.272 65.1 65.36 64.452 63.992 64.068L61.064 63.204C59.096 62.652 57.488 61.572 57.488 58.908ZM81.2896 70.5H79.2976V68.436C78.3376 70.116 76.6576 70.812 75.0736 70.812C72.9856 70.812 71.0896 69.66 71.0896 66.876V58.404H73.0816V66.3C73.0816 68.22 73.8976 68.964 75.7936 68.964C77.7136 68.964 79.2976 67.932 79.2976 65.508V58.404H81.2896V70.5ZM91.2526 58.068C93.7486 58.068 96.6526 60.036 96.6526 64.26C96.6526 68.676 93.8686 70.812 91.0126 70.812C89.3806 70.812 87.9166 69.828 86.9806 68.148V74.7H84.9886V58.404H86.9806V60.756C87.6766 59.508 89.0446 58.068 91.2526 58.068ZM90.7966 59.844C88.7806 59.844 86.9806 61.284 86.9806 64.404C86.9806 67.404 88.7806 69.036 90.7726 69.036C92.6686 69.036 94.6366 67.524 94.6366 64.308C94.6366 61.308 92.6446 59.844 90.7966 59.844ZM105.667 58.068C108.163 58.068 111.067 60.036 111.067 64.26C111.067 68.676 108.283 70.812 105.427 70.812C103.795 70.812 102.331 69.828 101.395 68.148V74.7H99.4027V58.404H101.395V60.756C102.091 59.508 103.459 58.068 105.667 58.068ZM105.211 59.844C103.195 59.844 101.395 61.284 101.395 64.404C101.395 67.404 103.195 69.036 105.187 69.036C107.083 69.036 109.051 67.524 109.051 64.308C109.051 61.308 107.059 59.844 105.211 59.844ZM118.689 58.068C121.857 58.068 124.473 60.468 124.473 64.428C124.473 68.388 121.857 70.812 118.689 70.812C115.497 70.812 112.905 68.388 112.905 64.428C112.905 60.468 115.497 58.068 118.689 58.068ZM118.689 59.844C116.649 59.844 114.921 61.356 114.921 64.428C114.921 67.524 116.649 69.036 118.689 69.036C120.729 69.036 122.457 67.524 122.457 64.428C122.457 61.356 120.729 59.844 118.689 59.844ZM132.622 60.228C130.894 60.228 129.238 61.404 129.238 65.172V70.5H127.246V58.404H129.238V61.14C130.174 58.692 132.094 58.068 133.198 58.068C133.63 58.068 134.014 58.14 134.302 58.26L134.062 60.444C133.678 60.324 133.27 60.228 132.622 60.228ZM137.412 55.452L139.404 55.068V58.404H142.572V60.084H139.404V67.62C139.404 68.508 139.836 68.964 140.892 68.964C141.468 68.964 141.756 68.892 142.164 68.796L142.548 70.476C141.996 70.644 141.228 70.812 140.628 70.812C138.444 70.812 137.412 69.588 137.412 67.692V60.084H135.036V58.404H137.412V55.452ZM156.18 70.812C153.636 70.812 150.78 68.772 150.78 64.428C150.78 60.132 153.612 58.068 156.108 58.068C158.148 58.068 159.492 58.908 160.332 60.924V58.404H162.324V70.5H160.332V67.788C159.756 69.348 158.436 70.812 156.18 70.812ZM156.516 59.844C154.692 59.844 152.796 61.284 152.796 64.476C152.796 67.644 154.692 69.036 156.516 69.036C158.556 69.036 160.332 67.716 160.332 64.476C160.332 61.332 158.532 59.844 156.516 59.844ZM171.388 59.916C169.42 59.916 168.004 61.044 168.004 63.516V70.5H166.012V58.404H168.004V60.276C168.82 58.716 170.572 58.068 171.988 58.068C174.148 58.068 176.116 59.148 176.116 62.388V70.5H174.124V62.964C174.124 60.732 172.924 59.916 171.388 59.916ZM190.426 54.228V70.5H188.434V68.244C187.81 69.612 186.586 70.812 184.234 70.812C181.738 70.812 178.858 68.748 178.858 64.332C178.858 60.108 181.69 58.068 184.57 58.068C186.274 58.068 187.618 58.956 188.434 60.66V54.228H190.426ZM184.69 59.844C182.842 59.844 180.874 61.308 180.874 64.38C180.874 67.524 182.818 69.036 184.666 69.036C186.682 69.036 188.434 67.644 188.434 64.476C188.434 61.428 186.682 59.844 184.69 59.844ZM211.238 54.228V70.5H209.246V68.244C208.622 69.612 207.398 70.812 205.046 70.812C202.55 70.812 199.67 68.748 199.67 64.332C199.67 60.108 202.502 58.068 205.382 58.068C207.086 58.068 208.43 58.956 209.246 60.66V54.228H211.238ZM205.502 59.844C203.654 59.844 201.686 61.308 201.686 64.38C201.686 67.524 203.63 69.036 205.478 69.036C207.494 69.036 209.246 67.644 209.246 64.476C209.246 61.428 207.494 59.844 205.502 59.844ZM219.894 59.844C217.878 59.844 216.486 60.948 216.126 63.156H223.59C223.446 60.852 221.91 59.844 219.894 59.844ZM225.51 64.764H216.03C216.15 67.284 217.494 69.036 220.11 69.036C222.318 69.036 223.206 68.004 223.566 66.42L225.39 66.828C224.934 69.588 222.318 70.812 220.134 70.812C216.726 70.812 214.014 68.388 214.014 64.404C214.014 60.516 216.63 58.068 219.942 58.068C223.23 58.068 225.51 60.396 225.51 64.044V64.764ZM226.774 58.404H229.03L232.51 68.052L236.014 58.404H238.246L233.422 70.5H231.598L226.774 58.404ZM245.371 59.844C243.355 59.844 241.963 60.948 241.603 63.156H249.067C248.923 60.852 247.387 59.844 245.371 59.844ZM250.987 64.764H241.507C241.627 67.284 242.971 69.036 245.587 69.036C247.795 69.036 248.683 68.004 249.043 66.42L250.867 66.828C250.411 69.588 247.795 70.812 245.611 70.812C242.203 70.812 239.491 68.388 239.491 64.404C239.491 60.516 242.107 58.068 245.419 58.068C248.707 58.068 250.987 60.396 250.987 64.044V64.764ZM253.762 54.228H255.754V70.5H253.762V54.228ZM264.329 58.068C267.497 58.068 270.113 60.468 270.113 64.428C270.113 68.388 267.497 70.812 264.329 70.812C261.137 70.812 258.545 68.388 258.545 64.428C258.545 60.468 261.137 58.068 264.329 58.068ZM264.329 59.844C262.289 59.844 260.561 61.356 260.561 64.428C260.561 67.524 262.289 69.036 264.329 69.036C266.369 69.036 268.097 67.524 268.097 64.428C268.097 61.356 266.369 59.844 264.329 59.844ZM279.151 58.068C281.647 58.068 284.551 60.036 284.551 64.26C284.551 68.676 281.767 70.812 278.911 70.812C277.279 70.812 275.815 69.828 274.879 68.148V74.7H272.887V58.404H274.879V60.756C275.575 59.508 276.943 58.068 279.151 58.068ZM278.695 59.844C276.679 59.844 274.879 61.284 274.879 64.404C274.879 67.404 276.679 69.036 278.671 69.036C280.567 69.036 282.535 67.524 282.535 64.308C282.535 61.308 280.543 59.844 278.695 59.844ZM299.877 59.916C298.221 59.916 296.997 61.044 296.997 63.516V70.5H294.981V63.036C294.981 60.804 293.805 59.916 292.269 59.916C290.565 59.916 289.293 61.044 289.293 63.516V70.5H287.301V58.404H289.293V60.252C290.085 58.692 291.669 58.068 293.061 58.068C294.525 58.068 296.013 58.668 296.661 60.42C297.525 58.62 299.229 58.068 300.549 58.068C302.661 58.068 304.677 59.148 304.677 62.388V70.5H302.685V62.916C302.685 60.804 301.509 59.916 299.877 59.916ZM313.293 59.844C311.277 59.844 309.885 60.948 309.525 63.156H316.989C316.845 60.852 315.309 59.844 313.293 59.844ZM318.909 64.764H309.429C309.549 67.284 310.893 69.036 313.509 69.036C315.717 69.036 316.605 68.004 316.965 66.42L318.789 66.828C318.333 69.588 315.717 70.812 313.533 70.812C310.125 70.812 307.413 68.388 307.413 64.404C307.413 60.516 310.029 58.068 313.341 58.068C316.629 58.068 318.909 60.396 318.909 64.044V64.764ZM327.06 59.916C325.092 59.916 323.676 61.044 323.676 63.516V70.5H321.684V58.404H323.676V60.276C324.492 58.716 326.244 58.068 327.66 58.068C329.82 58.068 331.788 59.148 331.788 62.388V70.5H329.796V62.964C329.796 60.732 328.596 59.916 327.06 59.916ZM336.162 55.452L338.154 55.068V58.404H341.322V60.084H338.154V67.62C338.154 68.508 338.586 68.964 339.642 68.964C340.218 68.964 340.506 68.892 340.914 68.796L341.298 70.476C340.746 70.644 339.978 70.812 339.378 70.812C337.194 70.812 336.162 69.588 336.162 67.692V60.084H333.786V58.404H336.162V55.452ZM350.442 54.228H352.434V60.708C353.082 59.556 354.402 58.068 356.61 58.068C359.106 58.068 362.01 60.036 362.01 64.26C362.01 68.676 359.25 70.812 356.37 70.812C354.666 70.812 353.25 69.804 352.434 68.316V70.5H350.442V54.228ZM356.226 59.844C354.234 59.844 352.434 61.284 352.434 64.404C352.434 67.404 354.234 69.036 356.202 69.036C358.074 69.036 359.994 67.524 359.994 64.308C359.994 61.308 358.05 59.844 356.226 59.844ZM365.674 74.628C364.906 74.628 364.162 74.412 363.706 74.196L364.042 72.492C364.378 72.66 364.978 72.9 365.818 72.9C367.642 72.9 368.362 71.316 367.642 69.516L363.202 58.404H365.458L369.058 68.58L372.442 58.404H374.674L369.778 71.436C368.962 73.62 367.738 74.628 365.674 74.628Z" fill="black"/>
<g clip-path="url(#clip0_99_4804)">
<path fill-rule="evenodd" clip-rule="evenodd" d="M213.642 102.145C220.35 102.145 223.912 104.4 223.912 111.699V132.5H219.4L218.747 127.726C216.61 129.922 212.455 132.411 207.172 132.411C201.888 132.411 198.327 129.503 198.327 124.221V121.195C198.327 116.566 201.295 113.955 206.518 113.955H218.154V111.699C218.094 108.139 216.848 107.011 212.395 107.011C209.546 107.011 204.619 107.367 200.107 107.723L199.573 103.51C203.67 102.797 209.606 102.145 213.642 102.145ZM218.154 118.287H207.587C204.916 118.405 204.144 119.77 204.144 121.966V123.509C204.144 126.358 205.45 127.545 208.359 127.545C210.971 127.545 214.829 126.836 218.154 123.869V118.287Z" fill="#193533"/>
<path fill-rule="evenodd" clip-rule="evenodd" d="M192.54 102.952L193.067 107.094L191.796 107.149C186.426 107.316 184.147 108.738 180.943 110.704L180.944 132.5H175.19L175.189 102.135H179.638L180.295 106.686C184.423 103.859 187.862 103.149 191.452 102.97L192.54 102.952Z" fill="#193533"/>
<path fill-rule="evenodd" clip-rule="evenodd" d="M154.262 102.135C163.281 102.135 166.96 105.509 166.96 111.843C166.96 117.051 164.764 120.129 159.899 120.129H146.904C147.497 126.403 149.989 127.705 155.567 127.705C158.534 127.705 162.569 127.35 165.714 126.995L166.248 130.783C163.399 132.027 158.237 132.5 154.796 132.5C144.708 132.5 140.852 128.416 140.852 117.288C140.852 105.864 144.886 102.135 154.262 102.135ZM154.559 106.988C148.921 106.988 147.023 108.823 146.785 115.69H158.356C160.789 115.69 161.204 113.618 161.204 111.843C161.145 108.35 159.483 106.988 154.559 106.988Z" fill="#193533"/>
<path fill-rule="evenodd" clip-rule="evenodd" d="M129.5 123.614C129.5 126.043 130.801 127.287 133.284 127.287H135.944L136.594 131.73C135.412 132.263 132.575 132.5 131.096 132.5C126.662 132.5 123.824 129.834 123.824 124.917V90.5H129.559L129.5 123.614Z" fill="#193533"/>
<path fill-rule="evenodd" clip-rule="evenodd" d="M110.77 123.614C110.77 126.043 112.071 127.287 114.554 127.287H117.215L117.865 131.73C116.683 132.263 113.845 132.5 112.367 132.5C107.932 132.5 105.095 129.834 105.095 124.917V90.5H110.83L110.77 123.614Z" fill="#193533"/>
<path fill-rule="evenodd" clip-rule="evenodd" d="M84.2277 102.055C93.2512 102.055 96.9313 105.438 96.9313 111.788C96.9313 117.01 94.735 120.096 89.8673 120.096H76.8669C77.4605 126.387 79.9541 127.692 85.5337 127.692C88.5019 127.692 92.5388 127.336 95.6848 126.981L96.2188 130.779C93.3696 132.026 88.2051 132.5 84.7623 132.5C75.5481 132.5 71.532 129.083 70.9029 119.996L56 119.594L57.5243 115.644H70.8435C71.2187 105.446 75.3028 102.055 84.2277 102.055ZM84.525 106.921C78.8854 106.921 76.9859 108.761 76.7486 115.646H88.3241C90.7576 115.646 91.1733 113.568 91.1733 111.788C91.1138 108.286 89.4516 106.921 84.525 106.921Z" fill="#193533"/>
</g>
<g clip-path="url(#clip1_99_4804)">
<path d="M941.212 74.2163L941.223 74.2121L941.235 74.2072C942.051 73.8556 942.624 73.9237 942.979 74.1691C943.34 74.4185 943.602 74.937 943.602 75.7568V108.833C943.602 109.475 943.457 109.999 943.177 110.414C942.899 110.827 942.465 111.164 941.831 111.396C930.096 115.667 921.157 117.789 912.234 117.789C903.311 117.789 894.371 115.667 882.637 111.396C882.002 111.164 881.569 110.827 881.29 110.414C881.011 109.999 880.866 109.475 880.866 108.833V75.7568C880.866 74.937 881.127 74.4185 881.488 74.1691C881.843 73.9237 882.416 73.8556 883.232 74.2072L883.244 74.2121L883.256 74.2163C894.522 78.2466 903.37 80.2737 912.234 80.2737C921.097 80.2737 929.945 78.2466 941.212 74.2163Z" stroke="#FF5B24" stroke-width="0.818061"/>
<path d="M883.255 72.9141L883.243 72.9183L883.232 72.9233C882.416 73.2763 881.843 73.208 881.489 72.9618C881.127 72.711 880.866 72.1892 880.866 71.3649V38.1412C880.866 37.4956 881.011 36.9685 881.291 36.5514C881.569 36.1359 882.003 35.7978 882.638 35.5649C894.372 31.2748 903.311 29.1434 912.234 29.1434C921.156 29.1434 930.096 31.2748 941.83 35.5649C942.464 35.7978 942.898 36.1359 943.177 36.5514C943.457 36.9685 943.602 37.4956 943.602 38.1412V71.3649C943.602 72.1892 943.34 72.711 942.979 72.9618C942.624 73.208 942.051 73.2763 941.236 72.9233L941.224 72.9183L941.212 72.9141C929.946 68.8657 921.098 66.8295 912.234 66.8295C903.37 66.8295 894.522 68.8657 883.255 72.9141Z" stroke="#FF5B24" stroke-width="0.818061"/>
<path d="M858.529 122.298L858.525 122.286L858.52 122.274C858.285 121.723 858.342 121.366 858.482 121.161C858.626 120.952 858.941 120.777 859.488 120.777H882.518C882.946 120.777 883.286 120.874 883.55 121.054C883.813 121.233 884.034 121.515 884.188 121.942C887.16 130.177 888.633 136.442 888.633 142.689C888.633 148.937 887.16 155.201 884.188 163.437C884.034 163.864 883.813 164.146 883.55 164.325C883.286 164.504 882.946 164.602 882.518 164.602H859.488C858.941 164.602 858.626 164.426 858.482 164.217C858.342 164.013 858.285 163.656 858.52 163.104L858.525 163.092L858.529 163.081C861.338 155.162 862.754 148.933 862.754 142.689C862.754 136.445 861.338 130.217 858.529 122.298Z" stroke="#FF5B24" stroke-width="0.818061"/>
<path d="M756.191 165H789.26C790.664 165 791.686 164.363 792.196 162.96C800.751 139.375 800.751 126.881 792.196 103.295C791.686 101.892 790.664 101.255 789.26 101.255H756.191C754.403 101.255 753.509 102.402 754.275 104.187C762.319 126.753 762.319 139.502 754.275 162.068C753.509 163.853 754.403 165 756.191 165Z" fill="#5A78FF"/>
<path d="M889.23 141.394C889.23 128.687 899.529 118.386 912.234 118.386C924.938 118.386 935.237 128.687 935.237 141.394C935.237 154.101 924.938 164.402 912.234 164.402C899.529 164.402 889.23 154.101 889.23 141.394Z" stroke="#FF5B24" stroke-width="0.818061"/>
<path d="M848.602 15.1992C831.003 15.1992 816.736 29.469 816.736 47.0717C816.736 64.6744 831.003 78.9442 848.602 78.9442C866.201 78.9442 880.468 64.6744 880.468 47.0717C880.468 29.469 866.201 15.1992 848.602 15.1992Z" fill="#FF5B24"/>
<path d="M857.614 161.175L857.618 161.187L857.623 161.198C858.108 162.33 858.03 163.163 857.661 163.699C857.289 164.24 856.537 164.602 855.407 164.602H810.823C809.937 164.602 809.202 164.401 808.615 164.003C808.03 163.607 807.559 162.993 807.239 162.111C801.479 146.209 798.612 134.082 798.612 121.972C798.612 109.862 801.479 97.7349 807.239 81.8337C807.559 80.9514 808.03 80.3375 808.615 79.9411C809.202 79.5434 809.937 79.3427 810.823 79.3427H855.407C856.537 79.3427 857.289 79.7048 857.661 80.2456C858.03 80.7813 858.108 81.614 857.623 82.7458L857.618 82.7574L857.614 82.7691C852.184 98.0221 849.457 109.989 849.457 121.972C849.457 133.955 852.184 145.922 857.614 161.175Z" stroke="#FF5B24" stroke-width="0.818061"/>
</g>
<defs>
<clipPath id="clip0_99_4804">
<rect width="304" height="42" fill="white" transform="translate(56 90.5)"/>
</clipPath>
<clipPath id="clip1_99_4804">
<rect width="190" height="150" fill="white" transform="translate(754 15)"/>
</clipPath>
</defs>
</svg>
